<?xml version="1.0" encoding="UTF-8" standalone="no"?>
<!DOCTYPE svg PUBLIC "-//W3C//DTD SVG 1.1//EN" "http://www.w3.org/Graphics/SVG/1.1/DTD/svg11.dtd">
<svg width="100%" height="100%" viewBox="0 0 3334 3334" version="1.1" xmlns="http://www.w3.org/2000/svg" xmlns:xlink="http://www.w3.org/1999/xlink" xml:space="preserve" xmlns:serif="http://www.serif.com/" style="fill-rule:evenodd;clip-rule:evenodd;stroke-linejoin:round;stroke-miterlimit:2;">
    <g transform="matrix(4.16667,0,0,4.16667,0,0)">
        <path d="M467.849,124.868L332.109,124.868L342.577,100.273C346.886,90.157 356.766,83.598 367.697,83.598L432.26,83.598C443.191,83.598 453.074,90.157 457.38,100.273L467.849,124.868Z" style="fill:rgb(190,190,190);"/>
        <path d="M632.297,248.677L167.702,248.677C152.608,248.677 140.373,236.359 140.373,221.164L140.373,207.407C140.373,192.212 152.608,179.894 167.702,179.894L632.297,179.894C647.391,179.894 659.629,192.212 659.629,207.407L659.629,221.164C659.629,236.359 647.391,248.677 632.297,248.677Z" style="fill:rgb(190,190,190);"/>
        <path d="M613.411,315.76L561.329,691.751C559.371,705.88 547.291,716.403 533.026,716.403L290.88,716.403C277.139,716.403 265.343,706.62 262.802,693.114L192.061,317.214C190.739,310.189 196.117,303.689 203.266,303.671L602.066,302.763C609.011,302.746 614.366,308.88 613.411,315.76ZM338.54,648.349L352.131,646.909C359.637,646.114 365.08,639.346 364.289,631.789L339.82,397.774C339.031,390.22 332.306,384.74 324.8,385.534L311.211,386.974C303.706,387.769 298.263,394.54 299.051,402.094L323.52,636.109C324.311,643.666 331.034,649.146 338.54,648.349ZM461.523,646.909L475.111,648.349C482.617,649.146 489.343,643.666 490.131,636.109L514.6,402.094C515.391,394.54 509.946,387.769 502.44,386.974L488.851,385.534C481.346,384.74 474.623,390.22 473.831,397.774L449.363,631.789C448.574,639.346 454.017,646.114 461.523,646.909Z" style="fill:rgb(190,190,190);"/>
        <g transform="matrix(28.5714,0,0,28.5714,5.07531e-14,5.07531e-14)">
            <path d="M11.849,22.692C11.586,22.72 11.351,22.528 11.323,22.264L10.467,14.073C10.439,13.809 10.63,13.572 10.892,13.544L11.368,13.494C11.631,13.466 11.866,13.658 11.894,13.922L12.75,22.113C12.778,22.377 12.587,22.614 12.325,22.642L11.849,22.692Z" style="fill-rule:nonzero;"/>
        </g>
        <g transform="matrix(28.5714,0,0,28.5714,5.07531e-14,5.07531e-14)">
            <path d="M16.153,22.642C15.891,22.614 15.7,22.377 15.728,22.113L16.584,13.922C16.612,13.658 16.847,13.466 17.11,13.494L17.585,13.544C17.848,13.572 18.039,13.809 18.011,14.073L17.155,22.264C17.127,22.528 16.892,22.72 16.629,22.692L16.153,22.642Z" style="fill-rule:nonzero;"/>
        </g>
        <g transform="matrix(28.5714,0,0,28.5714,5.07531e-14,5.07531e-14)">
            <path d="M11.923,1C11.349,1 10.831,1.344 10.605,1.875L9.542,4.37L4.913,4.37C3.857,4.37 3,5.233 3,6.296L3,8.704C3,9.685 3.729,10.495 4.672,10.615L7.629,26.226C7.719,26.676 8.111,27 8.567,27L20.351,27C20.824,27 21.226,26.651 21.297,26.18L23.447,10.596C24.331,10.426 25,9.644 25,8.704L25,6.296C25,5.233 24.144,4.37 23.087,4.37L18.456,4.37L17.394,1.875C17.168,1.344 16.649,1 16.075,1L11.923,1ZM16.375,4.37L16.008,3.51C15.858,3.155 15.512,2.926 15.129,2.926L12.869,2.926C12.487,2.926 12.141,3.155 11.99,3.51L11.624,4.37L16.375,4.37ZM21.469,11.052C21.503,10.811 21.315,10.596 21.072,10.597L7.114,10.629C6.864,10.629 6.676,10.857 6.722,11.102L9.198,24.259C9.287,24.732 9.7,25.074 10.181,25.074L18.656,25.074C19.155,25.074 19.578,24.706 19.647,24.211L21.469,11.052ZM22.13,8.704C22.659,8.704 23.087,8.273 23.087,7.741L23.087,7.259C23.087,6.727 22.659,6.296 22.13,6.296L5.87,6.296C5.341,6.296 4.913,6.727 4.913,7.259L4.913,7.741C4.913,8.273 5.341,8.704 5.87,8.704L22.13,8.704Z"/>
        </g>
    </g>
</svg>
