<?xml version="1.0" encoding="UTF-8" standalone="no"?>
<!DOCTYPE svg PUBLIC "-//W3C//DTD SVG 1.1//EN" "http://www.w3.org/Graphics/SVG/1.1/DTD/svg11.dtd">
<svg width="100%" height="100%" viewBox="0 0 3334 3334" version="1.1" xmlns="http://www.w3.org/2000/svg" xmlns:xlink="http://www.w3.org/1999/xlink" xml:space="preserve" xmlns:serif="http://www.serif.com/" style="fill-rule:evenodd;clip-rule:evenodd;stroke-linejoin:round;stroke-miterlimit:2;">
    <g transform="matrix(4.16667,0,0,4.16667,0,0)">
        <rect x="233.333" y="133.333" width="200" height="33.333" style="fill:rgb(255,4,0);"/>
        <rect x="300" y="233.333" width="66.667" height="33.333" style="fill:rgb(255,4,0);"/>
        <path d="M166.667,333.333L466.667,333.333L466.667,366.667C466.667,386.667 480,400 500,400L576.667,400L590,443.333C593.333,456.667 606.667,466.667 620,466.667L673.333,466.667C686.667,466.667 700,456.667 706.667,443.333L746.667,310L746.667,686.667L706.667,586.667C700,576.667 690,566.667 673.333,566.667L620,566.667C606.667,566.667 596.667,573.333 590,583.333L563.333,633.333L203.333,633.333L166.667,560L166.667,333.333Z" style="fill:rgb(255,4,0);"/>
        <g transform="matrix(1.6276,0,0,1.6276,0,0)">
            <g>
                <path d="M471.04,163.84L438.272,163.84C430.08,163.84 421.888,169.984 417.792,178.176L399.36,260.096L385.024,219.136C385.024,210.944 376.832,204.8 368.64,204.8L327.68,204.8L327.68,184.32C327.68,172.032 319.488,163.84 307.2,163.84L81.92,163.84C71.68,163.84 61.44,172.032 61.44,184.32L61.44,348.16C61.44,350.208 61.44,354.304 63.488,356.352L92.16,417.792C96.256,425.984 102.4,430.08 110.592,430.08L358.4,430.08C366.592,430.08 372.736,425.984 376.832,419.84L395.264,389.12L401.408,389.12L419.84,438.272C423.936,446.464 430.08,450.56 438.272,450.56L471.04,450.56C483.328,450.56 491.52,442.368 491.52,430.08L491.52,184.32C491.52,172.032 483.328,163.84 471.04,163.84ZM458.752,421.888L434.176,360.448C430.08,354.304 423.936,348.16 413.696,348.16L380.928,348.16C372.736,348.16 366.592,352.256 362.496,358.4L346.112,389.12L124.928,389.12L102.4,344.064L102.4,204.8L286.72,204.8L286.72,225.28C286.72,237.568 294.912,245.76 307.2,245.76L354.304,245.76L362.496,272.384C364.544,280.576 372.736,286.72 380.928,286.72L413.696,286.72C421.888,286.72 430.08,280.576 434.176,272.384L458.752,190.464L458.752,421.888Z" style="fill-rule:nonzero;"/>
            </g>
        </g>
        <g transform="matrix(1.6276,0,0,1.6276,0,0)">
            <g>
                <path d="M81.92,266.24L20.48,266.24C8.192,266.24 0,274.432 0,286.72C0,299.008 10.24,307.2 20.48,307.2L81.92,307.2C94.208,307.2 102.4,299.008 102.4,286.72C102.4,274.432 94.208,266.24 81.92,266.24Z" style="fill-rule:nonzero;"/>
            </g>
        </g>
        <g transform="matrix(1.6276,0,0,1.6276,0,0)">
            <g>
                <path d="M20.48,225.28C8.192,225.28 0,233.472 0,245.76L0,327.68C0,339.968 8.192,348.16 20.48,348.16C32.768,348.16 40.96,339.968 40.96,327.68L40.96,245.76C40.96,233.472 32.768,225.28 20.48,225.28Z" style="fill-rule:nonzero;"/>
            </g>
        </g>
        <g transform="matrix(1.6276,0,0,1.6276,0,0)">
            <g>
                <path d="M245.76,102.4L163.84,102.4C153.6,102.4 143.36,110.592 143.36,122.88L143.36,184.32C143.36,196.608 153.6,204.8 163.84,204.8L245.76,204.8C258.048,204.8 266.24,196.608 266.24,184.32L266.24,122.88C266.24,110.592 258.048,102.4 245.76,102.4ZM225.28,163.84L184.32,163.84L184.32,143.36L225.28,143.36L225.28,163.84Z" style="fill-rule:nonzero;"/>
            </g>
        </g>
        <g transform="matrix(1.6276,0,0,1.6276,0,0)">
            <g>
                <path d="M286.72,40.96L122.88,40.96C112.64,40.96 102.4,49.152 102.4,61.44L102.4,122.88C102.4,135.168 112.64,143.36 122.88,143.36L286.72,143.36C299.008,143.36 307.2,135.168 307.2,122.88L307.2,61.44C307.2,49.152 299.008,40.96 286.72,40.96ZM266.24,102.4L143.36,102.4L143.36,81.92L266.24,81.92L266.24,102.4Z" style="fill-rule:nonzero;"/>
            </g>
        </g>
    </g>
</svg>
